<?xml version="1.0" encoding="UTF-8" standalone="no"?>
<!-- Created with Inkscape (http://www.inkscape.org/) -->

<svg
   xmlns:dc="http://purl.org/dc/elements/1.1/"
   xmlns:cc="http://creativecommons.org/ns#"
   xmlns:rdf="http://www.w3.org/1999/02/22-rdf-syntax-ns#"
   xmlns:svg="http://www.w3.org/2000/svg"
   xmlns="http://www.w3.org/2000/svg"
   xmlns:sodipodi="http://sodipodi.sourceforge.net/DTD/sodipodi-0.dtd"
   xmlns:inkscape="http://www.inkscape.org/namespaces/inkscape"
   width="10"
   height="20"
   viewBox="0 0 10 20"
   id="svg2"
   version="1.1"
   inkscape:version="0.91 r13725"
   sodipodi:docname="arrow-right-black.svg">
  <defs
     id="defs4" />
  <sodipodi:namedview
     id="base"
     pagecolor="#ffffff"
     bordercolor="#666666"
     borderopacity="1.0"
     inkscape:pageopacity="0.0"
     inkscape:pageshadow="2"
     inkscape:zoom="15.839192"
     inkscape:cx="-27.55275"
     inkscape:cy="-4.1072487"
     inkscape:document-units="px"
     inkscape:current-layer="layer1"
     showgrid="false"
     units="px"
     inkscape:snap-global="false"
     inkscape:window-width="1920"
     inkscape:window-height="1018"
     inkscape:window-x="-8"
     inkscape:window-y="-8"
     inkscape:window-maximized="1" />
  <metadata
     id="metadata7">
    <rdf:RDF>
      <cc:Work
         rdf:about="">
        <dc:format>image/svg+xml</dc:format>
        <dc:type
           rdf:resource="http://purl.org/dc/dcmitype/StillImage" />
        <dc:title />
      </cc:Work>
    </rdf:RDF>
  </metadata>
  <g
     inkscape:label="Calque 1"
     inkscape:groupmode="layer"
     id="layer1"
     transform="translate(0,-1032.3622)">
    <path
       style="fill:none;stroke:#000000;stroke-width:3.32385826;stroke-linecap:round;stroke-linejoin:round;stroke-miterlimit:4;stroke-dasharray:none;stroke-opacity:1"
       d="m 8.2230484,1041.9274 c -0.1821,-1.4453 -1.2165,-3.2632 -3.106,-5.4597 -0.5848002,-0.6797 -1.4810002,-1.6223 -2.1237002,-2.2332 l -0.2215,-0.2106 -0.5548,0.4835 -0.5552,0.4835 0.2182,0.2064 c 0.5899,0.5579 1.4383,1.45 2.0102,2.1141 1.5315002,1.778 2.4431002,3.2568 2.7330002,4.4335 0.092,0.3764 0.086,0.8911 -0.018,1.284 -0.4141,1.5892 -2.0361002,3.8521 -4.4816002,6.253 l -0.4512,0.443 0.5469,0.4877 0.5467,0.4877 0.1945,-0.1862 c 1.3119,-1.2565 2.6536002,-2.7694 3.4616002,-3.9034 1.3834,-1.942 1.9564,-3.4336 1.7991,-4.6833 z"
       id="path3346"
       inkscape:connector-curvature="0" />
  </g>
</svg>
