<?xml version="1.0" encoding="UTF-8" standalone="no"?>
<!-- Created with Inkscape (http://www.inkscape.org/) -->

<svg
   xmlns:dc="http://purl.org/dc/elements/1.1/"
   xmlns:cc="http://creativecommons.org/ns#"
   xmlns:rdf="http://www.w3.org/1999/02/22-rdf-syntax-ns#"
   xmlns:svg="http://www.w3.org/2000/svg"
   xmlns="http://www.w3.org/2000/svg"
   xmlns:sodipodi="http://sodipodi.sourceforge.net/DTD/sodipodi-0.dtd"
   xmlns:inkscape="http://www.inkscape.org/namespaces/inkscape"
   width="20"
   height="10"
   viewBox="0 0 20 10"
   id="svg2"
   version="1.1"
   inkscape:version="0.91 r13725"
   sodipodi:docname="arrow-up-blue.svg">
  <defs
     id="defs4" />
  <sodipodi:namedview
     id="base"
     pagecolor="#ffffff"
     bordercolor="#666666"
     borderopacity="1.0"
     inkscape:pageopacity="0.0"
     inkscape:pageshadow="2"
     inkscape:zoom="15.839192"
     inkscape:cx="-27.55275"
     inkscape:cy="-4.1072487"
     inkscape:document-units="px"
     inkscape:current-layer="layer1"
     showgrid="false"
     units="px"
     inkscape:snap-global="false"
     inkscape:window-width="1920"
     inkscape:window-height="1018"
     inkscape:window-x="-8"
     inkscape:window-y="-8"
     inkscape:window-maximized="1" />
  <metadata
     id="metadata7">
    <rdf:RDF>
      <cc:Work
         rdf:about="">
        <dc:format>image/svg+xml</dc:format>
        <dc:type
           rdf:resource="http://purl.org/dc/dcmitype/StillImage" />
        <dc:title />
      </cc:Work>
    </rdf:RDF>
  </metadata>
  <g
     inkscape:label="Calque 1"
     inkscape:groupmode="layer"
     id="layer1"
     transform="translate(0,-1042.3622)">
    <path
       style="fill:none;stroke:#3366ff;stroke-width:3.32385826;stroke-linecap:round;stroke-linejoin:round;stroke-miterlimit:4;stroke-dasharray:none;stroke-opacity:1"
       d="m 9.5654289,1044.1389 c -1.4453273,0.1821 -3.263256,1.2165 -5.4597611,3.106 -0.6796286,0.5848 -1.6222366,1.481 -2.2331944,2.1237 l -0.2106014,0.2215 0.4835225,0.5548 0.4835225,0.5552 0.2064065,-0.2182 c 0.5578989,-0.5899 1.449954,-1.4383 2.1141257,-2.0102 1.7780122,-1.5315 3.2567292,-2.4431 4.4334366,-2.733 0.376426,-0.092 0.8910872,-0.086 1.2840042,0.018 1.589243,0.4141 3.852132,2.0361 6.253056,4.4816 l 0.442954,0.4512 0.487685,-0.5469 0.487687,-0.5467 -0.186129,-0.1945 c -1.256503,-1.3119 -2.769435,-2.6536 -3.903427,-3.4616 -1.941997,-1.3834 -3.433554,-1.9564 -4.6832871,-1.7991 z"
       id="path3346"
       inkscape:connector-curvature="0" />
  </g>
</svg>
